<svg xmlns="http://www.w3.org/2000/svg" width="1200" height="720" viewBox="0 0 1200 720" font-family="-apple-system, SF Pro Text, Segoe UI, sans-serif">
  <defs>
    <linearGradient id="logo" x1="0" y1="0" x2="1" y2="1">
      <stop offset="0" stop-color="#a38dff"></stop>
      <stop offset="1" stop-color="#622994"></stop>
    </linearGradient>
    <pattern id="dots" width="26" height="26" patternUnits="userSpaceOnUse">
      <circle cx="2" cy="2" r="1.4" fill="#3a3a3a"></circle>
    </pattern>
    <filter id="shadow" x="-20%" y="-20%" width="140%" height="140%">
      <feDropShadow dx="0" dy="10" stdDeviation="18" flood-color="#000" flood-opacity="0.45"></feDropShadow>
    </filter>
  </defs>

  
  <rect width="1200" height="720" rx="16" fill="#0e0e0e"></rect>
  <rect width="1200" height="720" rx="16" fill="url(#dots)"></rect>

  
  <g>
    <rect x="24" y="20" width="1152" height="44" rx="12" fill="#1c1c1e" opacity="0.92"></rect>
    <circle cx="46" cy="42" r="6" fill="#ff5f57"></circle>
    <circle cx="66" cy="42" r="6" fill="#febc2e"></circle>
    <circle cx="86" cy="42" r="6" fill="#28c840"></circle>
    <g transform="translate(106 30) scale(0.46)" stroke-linecap="round" stroke-linejoin="round">
      <path d="M13 12 L31 24 L13 36" fill="none" stroke="url(#logo)" stroke-width="5"></path>
      <circle cx="13" cy="12" r="3.6" fill="#a38dff"></circle>
      <circle cx="13" cy="36" r="3.6" fill="#a38dff"></circle>
      <circle cx="31" cy="24" r="3.6" fill="#fff"></circle>
      <rect x="33.5" y="32.5" width="10.5" height="5" rx="2.5" fill="#a38dff"></rect>
    </g>
    <text x="138" y="47" fill="#ffffff" font-size="14" font-weight="700">nodeterm</text>
    <rect x="232" y="30" width="92" height="24" rx="12" fill="#0a84ff"></rect>
    <text x="252" y="46" fill="#fff" font-size="12" font-weight="600">api</text>
    <rect x="332" y="30" width="92" height="24" rx="12" fill="#2a2a2c"></rect>
    <text x="350" y="46" fill="#aaa" font-size="12">scripts</text>
    <rect x="432" y="30" width="92" height="24" rx="12" fill="#2a2a2c"></rect>
    <text x="450" y="46" fill="#aaa" font-size="12">infra</text>
  </g>

  
  <g filter="url(#shadow)">
    <rect x="80" y="120" width="430" height="250" rx="12" fill="#161616" stroke="#2e7d46" stroke-width="1.5"></rect>
    <rect x="80" y="120" width="430" height="34" rx="12" fill="#1e1e1e"></rect>
    <circle cx="100" cy="137" r="5" fill="#30d158"></circle>
    <text x="116" y="142" fill="#e6e6e6" font-size="13" font-weight="600">dev server</text>
    <text x="470" y="142" fill="#666" font-size="14">×</text>
    <g font-family="SF Mono, Menlo, monospace" font-size="12.5">
      <text x="100" y="184" fill="#7ee787">➜  ~/app  </text><text x="176" y="184" fill="#d6d6d6">npm run dev</text>
      <text x="100" y="208" fill="#9aa0a6">VITE v5  ready in 412 ms</text>
      <text x="100" y="232" fill="#9aa0a6">➜  Local:   http://localhost:5173</text>
      <text x="100" y="256" fill="#58a6ff">watching for file changes...</text>
      <text x="100" y="284" fill="#7ee787">➜  ~/app  </text><text x="176" y="284" fill="#d6d6d6">git status</text>
      <text x="100" y="308" fill="#9aa0a6">On branch </text><text x="186" y="308" fill="#f0a500">main</text>
      <rect x="100" y="324" width="9" height="15" fill="#7ee787" opacity="0.85"></rect>
    </g>
  </g>

  
  <g filter="url(#shadow)">
    <rect x="560" y="160" width="420" height="220" rx="12" fill="#161616" stroke="#d97757" stroke-width="1.5"></rect>
    <rect x="560" y="160" width="420" height="34" rx="12" fill="#1e1e1e"></rect>
    <circle cx="580" cy="177" r="5" fill="#d97757"></circle>
    <text x="596" y="182" fill="#e6e6e6" font-size="13" font-weight="600">claude code</text>
    <g font-family="SF Mono, Menlo, monospace" font-size="12.5">
      <text x="580" y="224" fill="#d97757">✦ </text><text x="596" y="224" fill="#d6d6d6">claude</text>
      <text x="580" y="250" fill="#9aa0a6">Analyzing the repository…</text>
      <text x="580" y="276" fill="#9aa0a6">Reading 14 files across src/main</text>
      <text x="580" y="302" fill="#58a6ff">› How can I help you today?</text>
      <rect x="580" y="318" width="9" height="15" fill="#d97757" opacity="0.85"></rect>
    </g>
  </g>

  
  <g filter="url(#shadow)" transform="rotate(-3 300 470)">
    <rect x="200" y="410" width="220" height="150" rx="10" fill="#f0c64a"></rect>
    <text x="222" y="446" fill="#3a2e00" font-size="14" font-weight="700">TODO</text>
    <text x="222" y="476" fill="#5a4800" font-size="12.5">• sign + notarize build</text>
    <text x="222" y="500" fill="#5a4800" font-size="12.5">• ship v0.2 to feed</text>
    <text x="222" y="524" fill="#5a4800" font-size="12.5">• write release notes</text>
  </g>

  
  <g filter="url(#shadow)">
    <rect x="560" y="410" width="420" height="180" rx="12" fill="#161616" stroke="#6ac4dc" stroke-width="1.5"></rect>
    <rect x="560" y="410" width="420" height="34" rx="12" fill="#1e1e1e"></rect>
    <circle cx="580" cy="427" r="5" fill="#6ac4dc"></circle>
    <text x="596" y="432" fill="#e6e6e6" font-size="13" font-weight="600">updater.ts</text>
    <g font-family="SF Mono, Menlo, monospace" font-size="12">
      <text x="580" y="470" fill="#ff7b72">export function </text><text x="690" y="470" fill="#d2a8ff">initUpdater</text><text x="772" y="470" fill="#d6d6d6">(win) {</text>
      <text x="600" y="492" fill="#9aa0a6">// only in packaged app</text>
      <text x="600" y="514" fill="#79c0ff">autoUpdater</text><text x="690" y="514" fill="#d6d6d6">.checkForUpdates()</text>
      <text x="580" y="536" fill="#d6d6d6">}</text>
    </g>
  </g>

  
  <g filter="url(#shadow)">
    <rect x="470" y="648" width="260" height="48" rx="14" fill="#1c1c1e" opacity="0.95"></rect>
    <circle cx="506" cy="672" r="15" fill="#0a84ff"></circle>
    <text x="500" y="678" fill="#fff" font-size="18" font-weight="700">+</text>
    <rect x="536" y="664" width="2" height="16" fill="#3a3a3a"></rect>
    <g fill="none" stroke="#bbb" stroke-width="1.8" stroke-linecap="round">
      <path d="M556 678 a8 8 0 1 1 4 -7"></path>
      <path d="M556 666 l4 5 l5 -4"></path>
      <path d="M600 678 a8 8 0 1 0 -4 -7"></path>
      <path d="M600 666 l-4 5 l-5 -4"></path>
    </g>
    <text x="640" y="678" fill="#bbb" font-size="13">100%</text>
  </g>
</svg>