<svg xmlns="http://www.w3.org/2000/svg" viewBox="0 0 96 96" role="img" aria-hidden="true">
  <circle cx="48" cy="50" r="40" fill="#e7d9c2"/>
  <circle cx="48" cy="50" r="34" fill="#f4e9d6"/>
  <path d="M26 34c10-4 34-4 44 0 6 2 8 8 6 16-2 10-6 20-10 22-6 3-30 3-36 0-4-2-8-12-10-22-2-8 0-14 6-16z" fill="#6f9250" stroke="#4c6b34" stroke-width="2"/>
  <path d="M30 36c8 10 28 10 36 0M28 48c10 8 30 8 40 0M32 60c8 6 24 6 32 0" fill="none" stroke="#4c6b34" stroke-width="1.5" opacity="0.7"/>
  <path d="M48 30v-8M44 26l4-4 4 4" fill="none" stroke="#4c6b34" stroke-width="2" stroke-linecap="round" stroke-linejoin="round"/>
</svg>
